<svg width="256" height="256" viewBox="0 0 256 256" xmlns="http://www.w3.org/2000/svg">
  <!-- 背景圆形 -->
  <circle cx="128" cy="128" r="120" fill="#4A90E2" stroke="#2E5BBA" stroke-width="8"/>
  
  <!-- 工具箱图标 -->
  <g transform="translate(64, 64)">
    <!-- 工具箱主体 -->
    <rect x="20" y="40" width="88" height="60" rx="8" fill="#FFFFFF" stroke="#2E5BBA" stroke-width="3"/>
    
    <!-- 工具箱盖子 -->
    <rect x="16" y="32" width="96" height="20" rx="8" fill="#FFFFFF" stroke="#2E5BBA" stroke-width="3"/>
    
    <!-- 工具箱把手 -->
    <rect x="48" y="24" width="32" height="8" rx="4" fill="#2E5BBA"/>
    
    <!-- 工具图标 -->
    <!-- 扳手 -->
    <g transform="translate(35, 50)">
      <circle cx="8" cy="8" r="3" fill="#2E5BBA"/>
      <rect x="6" y="8" width="4" height="12" fill="#2E5BBA"/>
      <rect x="4" y="18" width="8" height="2" fill="#2E5BBA"/>
    </g>
    
    <!-- 螺丝刀 -->
    <g transform="translate(55, 50)">
      <rect x="6" y="4" width="4" height="16" fill="#2E5BBA"/>
      <rect x="4" y="2" width="8" height="4" fill="#2E5BBA"/>
    </g>
    
    <!-- 锤子 -->
    <g transform="translate(75, 50)">
      <rect x="6" y="8" width="4" height="12" fill="#2E5BBA"/>
      <rect x="4" y="6" width="8" height="4" fill="#2E5BBA"/>
      <rect x="2" y="4" width="4" height="2" fill="#2E5BBA"/>
    </g>
  </g>
  
  <!-- 装饰性齿轮 -->
  <g transform="translate(180, 40)">
    <circle cx="20" cy="20" r="15" fill="none" stroke="#FFFFFF" stroke-width="3" opacity="0.6"/>
    <circle cx="20" cy="20" r="8" fill="none" stroke="#FFFFFF" stroke-width="2" opacity="0.6"/>
    <circle cx="20" cy="20" r="3" fill="#FFFFFF" opacity="0.6"/>
  </g>
</svg>
